<svg width="20" height="20" viewBox="0 0 20 20" fill="none" xmlns="http://www.w3.org/2000/svg">
    <path fill-rule="evenodd" clip-rule="evenodd" d="M4.54667 19.9902C4.10064 19.9743 3.52579 19.9394 3.26451 19.8867C2.86567 19.8061 2.48902 19.684 2.17579 19.5244C1.80777 19.3368 1.47793 19.0975 1.19313 18.8132C0.90767 18.5283 0.667414 18.1981 0.479107 17.8295C0.319907 17.518 0.197861 17.1436 0.116977 16.7471C0.0631801 16.4831 0.0276006 15.904 0.0114717 15.4551C0.00493113 15.2716 0.00157522 15.0342 0.00157522 14.9247L0 5.07693C0 4.96787 0.00332166 4.73035 0.00982801 4.54667C0.025683 4.10067 0.0605775 3.52582 0.113347 3.26454C0.193855 2.86573 0.316003 2.48905 0.475614 2.17582C0.663202 1.80777 0.902465 1.478 1.18683 1.19316C1.47174 0.907735 1.80192 0.667479 2.17045 0.479137C2.48203 0.319972 2.85639 0.197892 3.25293 0.117008C3.51685 0.0632106 4.09602 0.0276311 4.54492 0.0115365C4.72833 0.00496164 4.96582 0.00160574 5.07533 0.00160574L14.9231 3.05176e-05C15.0322 3.05176e-05 15.2697 0.00331794 15.4533 0.00985853C15.8993 0.0257477 16.4742 0.060608 16.7355 0.113378C17.1343 0.19392 17.511 0.316068 17.8242 0.475645C18.1922 0.663233 18.522 0.90253 18.8068 1.18686C19.0923 1.4718 19.3325 1.80191 19.5209 2.17048C19.68 2.48207 19.8021 2.85639 19.883 3.25296C19.9368 3.51688 19.9724 4.09609 19.9885 4.54495C19.9951 4.7284 19.9984 4.96585 19.9984 5.07536L20 14.9231C20 15.0322 19.9967 15.2697 19.9901 15.4534C19.9742 15.8994 19.9394 16.4742 19.8866 16.7355C19.8061 17.1343 19.684 17.511 19.5244 17.8242C19.3368 18.1923 19.0975 18.5221 18.8132 18.8069C18.5282 19.0923 18.198 19.3326 17.8295 19.5209C17.5179 19.6801 17.1436 19.8022 16.747 19.883C16.4831 19.9368 15.9039 19.9724 15.4551 19.9885C15.2716 19.9951 15.0341 19.9984 14.9246 19.9984L5.0769 20C4.9678 20 4.73029 19.9967 4.54667 19.9902Z" fill="url(#paint0_radial_16_745)"/>
    <defs>
    <radialGradient id="paint0_radial_16_745" cx="0" cy="0" r="1" gradientUnits="userSpaceOnUse" gradientTransform="translate(5.31253 21.5404) rotate(-90) scale(19.8214 19.8215)">
    <stop stop-color="#FFDD55"/>
    <stop offset="0.1" stop-color="#FFDD55"/>
    <stop offset="0.5" stop-color="#FF543E"/>
    <stop offset="1" stop-color="#C837AB"/>
    </radialGradient>
    </defs>
</svg>
