<svg width="19" height="20" viewBox="0 0 19 20" fill="none" xmlns="http://www.w3.org/2000/svg">
<path d="M12.6707 5.36585C12.6707 3.47906 11.1429 1.95122 9.25607 1.95122C7.36928 1.95122 5.84144 3.47906 5.84144 5.36585C5.84144 7.25265 7.36928 8.78049 9.25607 8.78049C11.1429 8.78049 12.6707 7.25265 12.6707 5.36585ZM14.6219 5.36585C14.6219 8.33028 12.2205 10.7317 9.25607 10.7317C6.29165 10.7317 3.89022 8.33028 3.89022 5.36585C3.89022 2.40143 6.29165 0 9.25607 0C12.2205 0 14.6219 2.40143 14.6219 5.36585ZM2.42681 17.2125C2.42681 18.1329 2.34863 18.0488 2.87157 18.0488H16.1284C16.6513 18.0488 16.5731 18.1329 16.5731 17.2125C16.5731 14.9802 13.3497 13.6585 9.49998 13.6585C5.65024 13.6585 2.42681 14.9802 2.42681 17.2125ZM0.475586 17.2125C0.475586 13.427 4.66965 11.7073 9.49998 11.7073C14.3303 11.7073 18.5244 13.427 18.5244 17.2125C18.5244 19.1798 17.7623 20 16.1284 20H2.87157C1.23764 20 0.475586 19.1798 0.475586 17.2125Z" fill="#98A2B3"/>
</svg>
